mtllib Gun.mtl
# vertices
v 0 -2 -10
v 0 -2 -6
v 0 0 -8
v 16 0 -8
v 16 -2 -6
v 16 -2 -10
v 0 -16 -8
v 0 -16 -2
v 0 -10 -2
v 16 -10 -2
v 16 -16 -2
v 16 -16 -8
v 0 -6 -14
v 0 0 -8
v 0 0 -14
v 16 0 -8
v 16 -6 -14
v 16 0 -14
v 0 -16 -8
v 0 -14 -6
v 0 -14 -10
v 16 -14 -6
v 16 -16 -8
v 16 -14 -10
v 0 -16 -16
v 0 -16 -14
v 0 0 -14
v 0 0 -16
v 16 0 -14
v 16 -16 -14
v 16 -16 -16
v 16 0 -16
v 0 -16 -2
v 0 -16 -0
v 0 0 -0
v 0 0 -2
v 16 0 -0
v 16 -16 -0
v 16 -16 -2
v 16 0 -2
v 0 -16 -14
v 0 -16 -8
v 0 -10 -14
v 16 -10 -14
v 16 -16 -8
v 16 -16 -14
v 0 -6 -2
v 0 0 -2
v 0 0 -8
v 16 0 -2
v 16 -6 -2
v 16 0 -8
v -58 0 -10
v -58 0 -6
v -58 2 -6
v -58 2 -10
v -56 2 -6
v -56 0 -6
v -56 0 -10
v -56 2 -10
v -62 -4 -10
v -62 -4 -6
v -62 0 -6
v -62 0 -10
v -60 0 -6
v -60 -4 -6
v -60 -4 -10
v -60 0 -10
v -62 0 -10
v -62 0 -6
v -62 2 -6
v -62 2 -10
v -58 2 -6
v -58 0 -6
v -58 0 -10
v -58 2 -10
v -58 -16 -16
v -58 -16 -0
v -58 0 -0
v -58 0 -16
v 0 0 -0
v 0 -16 -0
v 0 -16 -16
v 0 0 -16
v -64 -48 -16
v -64 -48 -0
v -64 -16 -0
v -64 -16 -16
v -48 -16 -0
v -48 -48 -0
v -48 -48 -16
v -48 -16 -16
v -64 -16 -16
v -64 -16 -0
v -64 -4 -0
v -64 -4 -16
v -58 -4 -0
v -58 -16 -0
v -58 -16 -16
v -58 -4 -16
v -41.33333333333303 -24 -10
v -41.33333333333303 -24 -6
v -41.33333333333303 -18.666666666666664 -6
v -41.33333333333303 -18.666666666666664 -10
v -38 -18.666666666666664 -6
v -38 -24 -6
v -38 -24 -10
v -38 -18.666666666666664 -10
v -41.33333333333303 -18.66666666666788 -10
v -41.33333333333303 -18.66666666666788 -6
v -41.33333333333303 -16 -6
v -41.33333333333303 -16 -10
v -38 -16 -6
v -38 -18.66666666666788 -6
v -38 -18.66666666666788 -10
v -38 -16 -10
v -48 -24 -10
v -48 -24 -6
v -48 -21.333333333333332 -6
v -48 -21.333333333333332 -10
v -41.33333333333576 -21.333333333333332 -6
v -41.33333333333333 -24 -6
v -41.33333333333333 -24 -10
v -41.33333333333576 -21.333333333333332 -10

# texture coordinates
vt 10 -2
vt 6 -2
vt 8 -0
vt 16 8
vt 0 8
vt 0 6
vt 16 6
vt 0 10
vt 16 10
vt 8 -16
vt 2 -16
vt 2 -10
vt 16 -10
vt 0 -10
vt 0 -16
vt 16 -16
vt 26.000002 16
vt 0.40000153 16
vt 0.40000153 64
vt 26.000002 64
vt 0 2
vt 16 2
vt 14 -6
vt 14 -0
vt 0 14
vt 16 14
vt 16 -6
vt 0 -6
vt 0 -0
vt 16 -0
vt 6 -14
vt 10 -14
vt 14 -16
vt 26.000002 112
vt 0.40000153 112
vt 0.40000153 128
vt 26.000002 128
vt 16 16
vt 0 16
vt 2 -0
vt 26.000002 -0
vt 0.40000153 -0
vt 14 -10
vt 2 -6
vt 10 -0
vt 6 -0
vt 6 2
vt 10 2
vt -56 2
vt -58 2
vt -58 -0
vt -56 -0
vt -56 6
vt -58 6
vt -58 10
vt -56 10
vt 10 -4
vt 6 -4
vt -60 -0
vt -62 -0
vt -62 -4
vt -60 -4
vt -60 6
vt -62 6
vt -62 10
vt -60 10
vt -62 2
vt -58 -16
vt -92.4 -0
vt -92.4 128
vt -58 16
vt 16 -48
vt 0 -48
vt -48 -16
vt -64 -16
vt -64 -48
vt -48 -48
vt -48 -0
vt -64 -0
vt -64 16
vt -48 16
vt 0 -4
vt 16 -4
vt -58 -4
vt -64 -4
vt -102 -0
vt -102 128
vt -18 -10
vt -18 -6
vt -14 -6
vt -14 -10
vt -14 -23
vt -14 -25
vt -18 -25
vt -18 -23
vt -6 -23
vt -6 -25
vt -10 -25
vt -10 -23
vt -12 -6
vt -12 -10
vt -12 -23
vt -12 -25
vt -16 -6
vt -16 -10
vt -16 -25
vt -16 -29
vt -18 -29
vt -6 -29
vt -10 -29

# normals
vn -1 -0 -0
vn 0 0.7071067811865475 0.7071067811865475
vn 0 -1 -0
vn -0 0.7071067811865475 -0.7071067811865475
vn 1 0 -0
vn 0 0 1
vn -0 0.7071067811865476 -0.7071067811865476
vn -0 -0.7071067811865476 0.7071067811865476
vn 0 1 -0
vn -0 0 -1
vn 0 -0.7071067811865475 0.7071067811865475
vn 0 -0.7071067811865475 -0.7071067811865475
vn 0 0.7071067811865476 0.7071067811865476
vn 0 -0.7071067811865476 -0.7071067811865476

o entity0_brush0
usemtl __TB_empty
f  1/1/1  2/2/1  3/3/1
usemtl __TB_empty
f  4/4/2  3/5/2  2/6/2  5/7/2
usemtl __TB_empty
f  5/7/3  2/6/3  1/8/3  6/9/3
usemtl __TB_empty
f  6/9/4  1/8/4  3/5/4  4/4/4
usemtl __TB_empty
f  5/2/5  6/1/5  4/3/5

o entity1_brush0
usemtl __TB_empty
f  7/10/1  8/11/1  9/12/1
usemtl __TB_empty
f  10/13/6  9/14/6  8/15/6  11/16/6
usemtl __TB_empty
f  11/17/3  8/18/3  7/19/3  12/20/3
usemtl __TB_empty
f  12/4/7  7/5/7  9/21/7  10/22/7
usemtl __TB_empty
f  11/11/5  12/10/5  10/12/5

o entity1_brush1
usemtl __TB_empty
f  13/23/1  14/3/1  15/24/1
usemtl __TB_empty
f  16/4/8  14/5/8  13/25/8  17/26/8
usemtl __TB_empty
f  18/26/9  15/25/9  14/5/9  16/4/9
usemtl __TB_empty
f  17/27/10  13/28/10  15/29/10  18/30/10
usemtl __TB_empty
f  16/3/5  17/23/5  18/24/5

o entity1_brush2
usemtl __TB_empty
f  19/10/1  20/31/1  21/32/1
usemtl __TB_empty
f  22/7/11  20/6/11  19/5/11  23/4/11
usemtl __TB_empty
f  24/9/9  21/8/9  20/6/9  22/7/9
usemtl __TB_empty
f  23/4/12  19/5/12  21/8/12  24/9/12
usemtl __TB_empty
f  24/32/5  22/31/5  23/10/5

o entity1_brush3
usemtl __TB_empty
f  25/16/1  26/33/1  27/24/1  28/30/1
usemtl __TB_empty
f  29/30/6  27/29/6  26/15/6  30/16/6
usemtl __TB_empty
f  30/34/3  26/35/3  25/36/3  31/37/3
usemtl __TB_empty
f  32/38/9  28/39/9  27/25/9  29/26/9
usemtl __TB_empty
f  31/16/10  25/15/10  28/29/10  32/30/10
usemtl __TB_empty
f  32/30/5  29/24/5  30/33/5  31/16/5

o entity1_brush4
usemtl __TB_empty
f  33/11/1  34/15/1  35/29/1  36/40/1
usemtl __TB_empty
f  37/30/6  35/29/6  34/15/6  38/16/6
usemtl __TB_empty
f  38/41/3  34/42/3  33/18/3  39/17/3
usemtl __TB_empty
f  40/22/9  36/21/9  35/29/9  37/30/9
usemtl __TB_empty
f  39/16/10  33/15/10  36/29/10  40/30/10
usemtl __TB_empty
f  40/40/5  37/29/5  38/15/5  39/11/5

o entity1_brush5
usemtl __TB_empty
f  41/33/1  42/10/1  43/43/1
usemtl __TB_empty
f  44/26/13  43/25/13  42/5/13  45/4/13
usemtl __TB_empty
f  45/20/3  42/19/3  41/35/3  46/34/3
usemtl __TB_empty
f  46/16/10  41/15/10  43/14/10  44/13/10
usemtl __TB_empty
f  45/10/5  46/33/5  44/43/5

o entity1_brush6
usemtl __TB_empty
f  47/44/1  48/40/1  49/3/1
usemtl __TB_empty
f  50/30/6  48/29/6  47/28/6  51/27/6
usemtl __TB_empty
f  52/4/9  49/5/9  48/21/9  50/22/9
usemtl __TB_empty
f  51/22/14  47/21/14  49/5/14  52/4/14
usemtl __TB_empty
f  52/3/5  50/40/5  51/44/5

o entity2_brush0
usemtl __TB_empty
f  53/45/1  54/46/1  55/47/1  56/48/1
usemtl __TB_empty
f  57/49/6  55/50/6  54/51/6  58/52/6
usemtl __TB_empty
f  58/53/3  54/54/3  53/55/3  59/56/3
usemtl __TB_empty
f  60/56/9  56/55/9  55/54/9  57/53/9
usemtl __TB_empty
f  59/52/10  53/51/10  56/50/10  60/49/10
usemtl __TB_empty
f  60/48/5  57/47/5  58/46/5  59/45/5

o entity2_brush1
usemtl __TB_empty
f  61/57/1  62/58/1  63/46/1  64/45/1
usemtl __TB_empty
f  65/59/6  63/60/6  62/61/6  66/62/6
usemtl __TB_empty
f  66/63/3  62/64/3  61/65/3  67/66/3
usemtl __TB_empty
f  68/66/9  64/65/9  63/64/9  65/63/9
usemtl __TB_empty
f  67/62/10  61/61/10  64/60/10  68/59/10
usemtl __TB_empty
f  68/45/5  65/46/5  66/58/5  67/57/5

o entity2_brush2
usemtl __TB_empty
f  69/45/1  70/46/1  71/47/1  72/48/1
usemtl __TB_empty
f  73/50/6  71/67/6  70/60/6  74/51/6
usemtl __TB_empty
f  74/54/3  70/64/3  69/65/3  75/55/3
usemtl __TB_empty
f  76/55/9  72/65/9  71/64/9  73/54/9
usemtl __TB_empty
f  75/51/10  69/60/10  72/67/10  76/50/10
usemtl __TB_empty
f  76/48/5  73/47/5  74/46/5  75/45/5

o entity2_brush3
usemtl __TB_empty
f  77/16/1  78/15/1  79/29/1  80/30/1
usemtl __TB_empty
f  81/29/6  79/51/6  78/68/6  82/15/6
usemtl __TB_empty
f  82/42/3  78/69/3  77/70/3  83/36/3
usemtl __TB_empty
f  84/39/9  80/71/9  79/51/9  81/29/9
usemtl __TB_empty
f  83/15/10  77/68/10  80/51/10  84/29/10
usemtl __TB_empty
f  84/30/5  81/29/5  82/15/5  83/16/5

o entity2_brush4
usemtl __TB_empty
f  85/72/1  86/73/1  87/15/1  88/16/1
usemtl __TB_empty
f  89/74/6  87/75/6  86/76/6  90/77/6
usemtl __TB_empty
f  90/78/3  86/79/3  85/80/3  91/81/3
usemtl __TB_empty
f  92/81/9  88/80/9  87/79/9  89/78/9
usemtl __TB_empty
f  91/77/10  85/76/10  88/75/10  92/74/10
usemtl __TB_empty
f  92/16/5  89/15/5  90/73/5  91/72/5

o entity2_brush5
usemtl __TB_empty
f  93/16/1  94/15/1  95/82/1  96/83/1
usemtl __TB_empty
f  97/84/6  95/85/6  94/75/6  98/68/6
usemtl __TB_empty
f  98/69/3  94/86/3  93/87/3  99/70/3
usemtl __TB_empty
f  100/71/9  96/80/9  95/79/9  97/51/9
usemtl __TB_empty
f  99/68/10  93/75/10  96/85/10  100/84/10
usemtl __TB_empty
f  100/83/5  97/82/5  98/15/5  99/16/5

o entity2_brush6
usemtl __TB_empty
f  101/88/1  102/89/1  103/90/1  104/91/1
usemtl __TB_empty
f  105/92/6  103/93/6  102/94/6  106/95/6
usemtl __TB_empty
f  106/96/3  102/97/3  101/98/3  107/99/3
usemtl __TB_empty
f  108/99/9  104/98/9  103/97/9  105/96/9
usemtl __TB_empty
f  107/95/10  101/94/10  104/93/10  108/92/10
usemtl __TB_empty
f  108/91/5  105/90/5  106/89/5  107/88/5

o entity2_brush7
usemtl __TB_empty
f  109/91/1  110/90/1  111/100/1  112/101/1
usemtl __TB_empty
f  113/102/6  111/103/6  110/93/6  114/92/6
usemtl __TB_empty
f  114/96/3  110/97/3  109/98/3  115/99/3
usemtl __TB_empty
f  116/99/9  112/98/9  111/97/9  113/96/9
usemtl __TB_empty
f  115/92/10  109/93/10  112/103/10  116/102/10
usemtl __TB_empty
f  116/101/5  113/100/5  114/90/5  115/91/5

o entity2_brush8
usemtl __TB_empty
f  117/88/1  118/89/1  119/104/1  120/105/1
usemtl __TB_empty
f  121/106/6  119/107/6  118/108/6  122/94/6
usemtl __TB_empty
f  122/97/3  118/109/3  117/110/3  123/98/3
usemtl __TB_empty
f  124/98/9  120/110/9  119/109/9  121/97/9
usemtl __TB_empty
f  123/94/10  117/108/10  120/107/10  124/106/10
usemtl __TB_empty
f  124/105/5  121/104/5  122/89/5  123/88/5

